<svg xmlns="http://www.w3.org/2000/svg" version="1.1" xmlns:xlink="http://www.w3.org/1999/xlink" xmlns:svgjs="http://svgjs.dev/svgjs" width="1920" height="1280" preserveAspectRatio="none" viewBox="0 0 1920 1280"><g mask="url(&quot;#SvgjsMask1526&quot;)" fill="none"><rect width="1920" height="1280" x="0" y="0" fill="rgba(211, 211, 211, 1)"></rect><path d="M 0,250 C 76.8,291.8 230.4,480.4 384,459 C 537.6,437.6 614.4,161 768,143 C 921.6,125 998.4,355 1152,369 C 1305.6,383 1382.4,159.8 1536,213 C 1689.6,266.2 1843.2,550.6 1920,635L1920 1280L0 1280z" fill="rgba(255, 255, 255, 1)"></path><path d="M 0,1138 C 128,1101.2 384,938.8 640,954 C 896,969.2 1024,1243.2 1280,1214 C 1536,1184.8 1792,889.2 1920,808L1920 1280L0 1280z" fill="rgba(240, 240, 240, 0.7)"></path></g><defs><mask id="SvgjsMask1526"><rect width="1920" height="1280" fill="#ffffff"></rect></mask></defs></svg>