<svg xmlns="http://www.w3.org/2000/svg" version="1.1" xmlns:xlink="http://www.w3.org/1999/xlink" xmlns:svgjs="http://svgjs.dev/svgjs" width="1440" height="560" preserveAspectRatio="none" viewBox="0 0 1440 560"><g mask="url(&quot;#SvgjsMask1005&quot;)" fill="none"><rect width="1440" height="560" x="0" y="0" fill="rgba(240, 240, 240, 0.6)"></rect><path d="M0,420.46C83.764,413.576,163.804,405.562,243.514,378.915C346.319,344.547,469.832,331.86,531.562,242.756C594.528,151.867,572.706,29.246,561.998,-80.803C550.851,-195.359,537.712,-313.99,468.443,-405.909C396.925,-500.813,292.084,-576.608,174.652,-594.809C61.969,-612.274,-47.236,-556.184,-147.204,-501.331C-231.844,-454.888,-280.03,-369.21,-352.582,-305.514C-440.035,-228.736,-583.29,-200.069,-617.169,-88.736C-650.845,21.931,-582.478,140.64,-517.462,236.317C-458.499,323.086,-369.505,385.998,-270.669,421.169C-183.911,452.043,-91.779,428.002,0,420.46" fill="rgba(192, 192, 192, 0.6)"></path><path d="M1440 896.681C1504.259 888.025 1567.631 878.414 1623.648 845.762 1681.446 812.072 1732.8980000000001 767.206 1763.866 707.905 1795.818 646.722 1813.245 575.976 1799.904 508.254 1786.854 442.007 1737.334 391.668 1691.755 341.853 1647.299 293.265 1598.925 250.224 1538.942 223.036 1471.857 192.62900000000002 1396.474 150.998 1327.463 176.735 1258.44 202.47699999999998 1238.792 288.945 1197.904 350.223 1162.629 403.089 1111.931 448.633 1103.967 511.686 1096.0529999999999 574.343 1136.662 629.726 1154.967 690.17 1176.6680000000001 761.828 1160.912 855.998 1221.5430000000001 899.9259999999999 1281.738 943.538 1366.3319999999999 906.604 1440 896.681" fill="rgba(255, 255, 255, 0.6)"></path></g><defs><mask id="SvgjsMask1005"><rect width="1440" height="560" fill="#ffffff"></rect></mask></defs></svg>